<svg version="1.1" id="Layer_1" xmlns="http://www.w3.org/2000/svg" xmlns:xlink="http://www.w3.org/1999/xlink" x="0px" y="0px"
	 width="1024px" height="544px" viewBox="0 0 1024 544" enable-background="new 0 0 1024 544" xml:space="preserve">
<path fill="#E69138" opacity="1.000000" stroke="none" 
	d="
M426.999817,249.008148 
	C419.849976,248.985718 413.198303,248.866287 406.550812,248.983063 
	C402.685791,249.050949 400.790222,247.847580 400.850250,243.554077 
	C401.029114,230.755707 400.952301,217.952103 400.823395,205.152069 
	C400.784607,201.297821 402.295502,199.869064 406.168182,199.916382 
	C418.967194,200.072800 431.770630,200.082687 444.569427,199.918716 
	C448.888947,199.863373 450.397125,201.480881 450.326416,205.792831 
	C450.122070,218.258163 450.093567,230.732239 450.341278,243.196014 
	C450.430908,247.704468 448.561707,249.040527 444.455963,248.948380 
	C438.807220,248.821640 433.152161,248.976242 426.999817,249.008148 
z"/>
<path fill="#FFFFFF" opacity="1.000000" stroke="none" 
	d="
M442.617157,260.614075 
	C451.524445,251.756439 451.500732,251.779877 460.030975,260.405457 
	C467.395569,267.852325 474.727814,275.335754 482.269562,282.600372 
	C485.146484,285.371552 485.474396,287.258606 482.385101,290.234283 
	C473.167419,299.113007 464.182831,308.237610 455.244476,317.400085 
	C452.631958,320.078125 450.706329,320.445862 447.896942,317.552979 
	C438.748260,308.132324 429.423676,298.880402 420.065308,289.666687 
	C417.614594,287.253876 417.679596,285.481812 420.148987,283.079437 
	C427.654846,275.777191 434.973450,268.282501 442.617157,260.614075 
M456.008331,303.443085 
	C461.564697,297.979645 467.121063,292.516174 473.445099,286.297913 
	C466.300507,279.380188 459.752289,273.026550 453.185486,266.692230 
	C451.786987,265.343262 450.425385,265.825409 449.246094,267.021423 
	C442.970245,273.386475 436.718750,279.775543 429.141663,287.498871 
	C435.508179,293.291107 441.606659,298.460846 447.231110,304.103180 
	C450.436615,307.318909 452.831696,307.734894 456.008331,303.443085 
z"/>
<path fill="#FFFFFF" opacity="1.000000" stroke="none" 
	d="
M513.000000,111.754440 
	C520.159607,111.761177 526.820984,111.861870 533.478149,111.738129 
	C536.865112,111.675171 538.271118,112.981850 538.246399,116.431129 
	C538.151184,129.749725 538.159607,143.069794 538.255005,156.388428 
	C538.278259,159.635101 536.812256,160.916702 533.765564,160.914139 
	C520.293274,160.902786 506.820892,160.885559 493.348663,160.920303 
	C489.889740,160.929214 488.760895,159.203217 488.785156,155.917908 
	C488.882324,142.765808 488.884064,129.612335 488.804596,116.460083 
	C488.784241,113.088760 490.061951,111.626442 493.520966,111.706795 
	C499.844269,111.853691 506.173340,111.752991 513.000000,111.754440 
M498.225128,144.357651 
	C498.233459,151.671555 498.233459,151.674240 505.539612,151.676468 
	C511.681427,151.678345 517.825806,151.565750 523.963989,151.713791 
	C527.282166,151.793839 528.847717,150.711853 528.771973,147.164337 
	C528.616028,139.863876 528.643005,132.556580 528.757690,125.254662 
	C528.805176,122.229851 527.528564,121.105774 524.604004,121.140663 
	C517.301331,121.227791 509.994873,121.283134 502.694214,121.136925 
	C499.134796,121.065643 498.091797,122.667992 498.180756,125.968163 
	C498.337250,131.773804 498.226746,137.586639 498.225128,144.357651 
z"/>
<path fill="#FFFFFF" opacity="1.000000" stroke="none" 
	d="
M458.572205,189.584320 
	C458.231415,189.977066 458.127625,190.107452 458.015472,190.230240 
	C451.565216,197.291336 451.568024,197.288467 445.050415,190.733749 
	C436.838562,182.475143 428.696320,174.145126 420.364685,166.009125 
	C417.574158,163.284134 417.636841,161.398773 420.448273,158.673187 
	C429.525574,149.873001 438.472046,140.930984 447.246704,131.829361 
	C450.164581,128.802780 452.190735,128.306412 455.338531,131.573914 
	C464.341095,140.918655 473.568573,150.049637 482.828857,159.141129 
	C485.169373,161.439011 485.063660,163.019882 482.763947,165.276077 
	C474.688263,173.198990 466.778229,181.290741 458.572205,189.584320 
M460.795593,174.297623 
	C464.500183,170.169266 469.072174,166.817291 472.377625,162.188507 
	C471.142578,160.806534 470.309204,159.783676 469.383240,158.852951 
	C464.233307,153.676376 459.016724,148.565231 453.917877,143.339096 
	C451.883270,141.253693 450.252075,141.737381 448.447540,143.563202 
	C443.081421,148.992615 437.712524,154.420822 432.252319,159.754913 
	C430.403381,161.561157 430.451874,163.000031 432.260681,164.753494 
	C435.596344,167.987167 438.783875,171.373291 442.107361,174.619934 
	C452.988800,185.249832 449.654999,185.144547 460.795593,174.297623 
z"/>
<path fill="#FFFFFF" opacity="1.000000" stroke="none" 
	d="
M548.563232,169.434357 
	C540.606384,161.139969 540.061279,163.347794 548.468018,154.915009 
	C556.220947,147.138031 564.117310,139.501877 571.773743,131.631836 
	C574.520569,128.808395 576.539978,128.328262 579.522705,131.412369 
	C588.659790,140.860062 597.986938,150.126312 607.350586,159.350998 
	C609.661499,161.627579 609.643066,163.230988 607.311584,165.509216 
	C597.791077,174.812073 588.376282,184.224731 579.023865,193.696960 
	C576.761169,195.988556 575.096191,195.998871 572.822144,193.680084 
	C564.900208,185.602234 556.825745,177.673981 548.563232,169.434357 
M586.037842,173.537659 
	C588.975647,170.591721 591.925659,167.657837 594.844849,164.693512 
	C595.919983,163.601776 597.093750,162.346100 595.658081,160.839935 
	C589.282898,154.151688 582.838989,147.528915 576.913208,141.393250 
	C569.172241,149.090546 562.274475,155.949402 554.505859,163.674164 
	C558.196411,167.011688 562.256958,170.449417 566.050476,174.160065 
	C575.815857,183.712006 575.768616,183.760300 586.037842,173.537659 
z"/>
<path fill="#FFFFFF" opacity="1.000000" stroke="none" 
	d="
M560.931763,306.062073 
	C555.131714,300.299072 549.636536,294.729828 543.984924,289.324127 
	C541.793213,287.227753 541.813721,285.592957 543.930786,283.505310 
	C553.533508,274.036194 563.096558,264.526093 572.596497,254.953949 
	C574.813965,252.719620 576.589905,252.597595 578.864258,254.904404 
	C588.449402,264.626068 598.097290,274.286957 607.815430,283.875610 
	C609.950745,285.982452 609.388062,287.447418 607.548645,289.272034 
	C597.974060,298.769836 588.418884,308.288208 578.959229,317.900085 
	C576.754395,320.140381 575.017029,320.445465 572.753784,318.045074 
	C568.986694,314.049683 565.043335,310.220398 560.931763,306.062073 
M558.613586,282.038177 
	C557.362366,283.526703 555.498657,284.543488 555.171936,285.891418 
	C562.549683,293.094025 569.594971,299.972015 576.522400,306.734955 
	C582.290466,301.100952 588.435059,295.044037 594.649170,289.059296 
	C596.853882,286.935913 596.499573,285.269043 594.411377,283.243683 
	C589.161194,278.151398 583.967773,272.990967 578.964050,267.658508 
	C576.629883,265.170959 574.991211,265.554321 572.847534,267.785065 
	C568.355652,272.459381 563.696411,276.972809 558.613586,282.038177 
z"/>
<path fill="#FFFFFF" opacity="1.000000" stroke="none" 
	d="
M488.800049,311.000000 
	C488.805969,304.500641 488.887543,298.500061 488.789917,292.502380 
	C488.737213,289.262634 489.732910,287.613037 493.355621,287.650085 
	C506.686249,287.786438 520.019531,287.767761 533.350708,287.661316 
	C536.711609,287.634491 538.212097,288.812744 538.192383,292.280396 
	C538.117493,305.445160 538.121094,318.611145 538.224854,331.775604 
	C538.252441,335.281616 536.719360,336.388489 533.378845,336.360901 
	C520.214417,336.252014 507.046722,336.195038 493.884125,336.386383 
	C489.782501,336.445984 488.708557,334.686951 488.792908,330.997040 
	C488.941376,324.501373 488.813324,317.999359 488.800049,311.000000 
M515.479675,327.576202 
	C518.469238,327.581329 521.460876,327.519592 524.447754,327.610962 
	C527.275818,327.697479 528.808289,326.698608 528.774475,323.610291 
	C528.690857,315.971344 528.711182,308.330688 528.759827,300.691162 
	C528.775940,298.162720 527.577209,297.037811 525.145447,297.035461 
	C517.506165,297.028076 509.866669,297.052399 502.227631,297.002716 
	C499.255676,296.983368 498.122253,298.388275 498.158722,301.294617 
	C498.252441,308.767334 498.245911,316.242371 498.176514,323.715485 
	C498.151062,326.451355 499.280975,327.656982 502.031586,327.600586 
	C506.182007,327.515472 510.335419,327.575500 515.479675,327.576202 
z"/>
</svg>